# xmcd
#
# Track frame offsets: 
#        150
#        23336
#        42524
#        58751
#        83879
#        94788
#        122702
#        136751
#        154937
#
# Disc length: 2419 seconds
#
# Revision: 0
# Processed by: cddbd v1.5.2PL0 Copyright (c) Steve Scherf et al.
# Submitted via: ExactAudioCopyFreeDBPlugin 1.0
#
DISCID=6c097109
DTITLE=Scherrie and Susaye - Partners (2013 Remastered)
DYEAR=1979
DGENRE=Soul
TTITLE0=Storybook Romance
TTITLE1=Your Sweet Love
TTITLE2=Luvbug
TTITLE3=Leaving Me Was The Best Thing You've Ever Done
TTITLE4=When The Day Comes Every Night
TTITLE5=In the Night
TTITLE6=I've Found Another Love
TTITLE7=You've Been Good To Me
TTITLE8=Another Life From Now
EXTD=
EXTT0=
EXTT1=
EXTT2=
EXTT3=
EXTT4=
EXTT5=
EXTT6=
EXTT7=
EXTT8=
PLAYORDER=
